<?xml version="1.0" encoding="UTF-8" standalone="no"?>
<!-- Created with Inkscape (http://www.inkscape.org/) -->

<svg
   xmlns:dc="http://purl.org/dc/elements/1.1/"
   xmlns:cc="http://creativecommons.org/ns#"
   xmlns:rdf="http://www.w3.org/1999/02/22-rdf-syntax-ns#"
   xmlns:svg="http://www.w3.org/2000/svg"
   xmlns="http://www.w3.org/2000/svg"
   xmlns:sodipodi="http://sodipodi.sourceforge.net/DTD/sodipodi-0.dtd"
   xmlns:inkscape="http://www.inkscape.org/namespaces/inkscape"
   width="200mm"
   height="200mm"
   viewBox="0 0 200 200"
   version="1.1"
   id="svg838"
   inkscape:version="0.92.4 (5da689c313, 2019-01-14)"
   sodipodi:docname="favicon.svg"
   inkscape:export-filename="C:\Users\Tom\Documents\Projects\geotrackr\notes\geotrackr.png"
   inkscape:export-xdpi="40.639999"
   inkscape:export-ydpi="40.639999">
  <defs
     id="defs832">
    <radialGradient
       spreadMethod="reflect"
       gradientUnits="userSpaceOnUse"
       gradientTransform="matrix(0.92255,0.54994,-0.61282,1.0614,218.04,-49.879)"
       r="141.81"
       cy="249.47"
       cx="317.85999"
       id="b">
      <stop
         id="stop1460"
         offset="0"
         stop-color="#b8ff71" />
      <stop
         id="stop1462"
         offset="1"
         stop-color="#6c0" />
    </radialGradient>
    <radialGradient
       gradientUnits="userSpaceOnUse"
       gradientTransform="matrix(0.24362,0.87764,-1.1344,0.31491,586.41,-25.658)"
       r="130.08"
       cy="309.10999"
       cx="298.67001"
       id="c">
      <stop
         id="stop1465"
         offset="0"
         stop-opacity=".867"
         stop-color="#fff" />
      <stop
         id="stop1467"
         offset="1"
         stop-opacity="0"
         stop-color="#fff" />
    </radialGradient>
    <radialGradient
       gradientUnits="userSpaceOnUse"
       gradientTransform="matrix(1.131,0,0,1.1312,-22.1,-17.655)"
       r="149.3"
       cy="315.41"
       cx="298.10001"
       id="a">
      <stop
         id="stop1470"
         offset="0"
         stop-color="#007fff" />
      <stop
         id="stop1472"
         offset=".39286"
         stop-color="#1c8eff" />
      <stop
         id="stop1474"
         offset="1"
         stop-color="#1a4a7a" />
    </radialGradient>
    <filter
       style="color-interpolation-filters:sRGB"
       inkscape:label="Lightness-Contrast"
       id="filter1646">
      <feColorMatrix
         values="1 0 0 0.0885417 -0 0 1 0 0.0885417 -0 0 0 1 0.0885417 -0 0 0 0 1 0"
         id="feColorMatrix1644" />
    </filter>
  </defs>
  <sodipodi:namedview
     id="base"
     pagecolor="#ffffff"
     bordercolor="#666666"
     borderopacity="1.0"
     inkscape:pageopacity="0.0"
     inkscape:pageshadow="2"
     inkscape:zoom="0.98994949"
     inkscape:cx="268.50038"
     inkscape:cy="376.48717"
     inkscape:document-units="mm"
     inkscape:current-layer="layer1"
     showgrid="false"
     inkscape:window-width="1920"
     inkscape:window-height="1017"
     inkscape:window-x="-8"
     inkscape:window-y="-8"
     inkscape:window-maximized="1"
     inkscape:pagecheckerboard="true" />
  <metadata
     id="metadata835">
    <rdf:RDF>
      <cc:Work
         rdf:about="">
        <dc:format>image/svg+xml</dc:format>
        <dc:type
           rdf:resource="http://purl.org/dc/dcmitype/StillImage" />
        <dc:title></dc:title>
      </cc:Work>
    </rdf:RDF>
  </metadata>
  <g
     inkscape:label="Layer 1"
     inkscape:groupmode="layer"
     id="layer1"
     transform="translate(0,-97)">
    <g
       id="g1518"
       transform="matrix(1.213773,0,0,1.213773,-20.456937,56.613546)">
      <circle
         style="fill:#ffffff;fill-opacity:1;stroke:none;stroke-width:1;stroke-miterlimit:4;stroke-dasharray:none;stroke-opacity:1"
         id="path2222"
         cx="99.388519"
         cy="114.7341"
         r="78.309975" />
      <g
         transform="matrix(0.39873951,0,0,0.39873951,19.113916,39.492901)"
         id="g1507"
         style="filter:url(#filter1646)">
        <g
           style="stroke-width:0.278"
           id="g1483">
          <path
             style="fill:url(#a)"
             inkscape:connector-curvature="0"
             d="m 201.33,62 c -26.481,0 -51.311,6.9656 -72.882,19.078 -0.0135,0.0075 -0.0406,-0.0076 -0.0541,0 -13.958,7.8431 -26.446,17.93 -37.169997,29.67 -24.263,26.559 -39.223,61.789 -39.223,100.58 0,82.436 66.918997,149.32 149.329997,149.32 2.5937,0 5.1106,-0.2475 7.6717,-0.37836 4.1212,-0.21075 8.1835,-0.54193 12.21,-1.081 37.336,-4.9964 70.315,-23.697 93.628,-51.017 22.26,-26.086 35.766,-59.888 35.766,-96.846 0,-18.861 -3.6075,-36.83 -9.9949,-53.449 -3.1327,-8.1514 -7.0048,-15.955 -11.454,-23.347 -19.28,-32.034 -50.148,-56.199 -86.874,-66.69 -13.038,-3.7242 -26.724,-5.8368 -40.952,-5.8368 z"
             id="path1479" />
          <path
             style="fill:url(#b)"
             inkscape:connector-curvature="0"
             d="m 180.18,66.702 c -0.53748,0 -1.3877,0.09808 -1.7524,0.58444 -0.35199,0.46939 -0.68988,1.0794 -1.0708,1.4603 -0.22821,0.22827 -0.46719,0.8764 -1.0709,0.8764 -0.3483,0 -1.5018,-0.18793 -1.7523,0 -0.46414,0.34833 -1.1189,0.67899 -1.2656,1.2658 -0.18838,0.75369 -0.82657,0.63187 -1.3628,1.1683 -0.3027,0.30283 -1.0106,0.86136 -1.4603,0.97382 -0.58786,0.14688 -1.1038,0.29187 -1.7524,0.29202 -0.49353,0 -1.1789,-0.11893 -1.655,0 -0.77731,0.1944 -1.1842,0.90472 -1.8496,1.071 -0.60495,0.15128 -0.87906,0.39322 -1.1683,0.77896 -0.3736,0.49811 -1.2422,0.77881 -1.8497,0.77881 -0.93274,0 -0.97327,0.17023 -1.655,0.68155 -0.48425,0.36325 -1.3306,0.48682 -1.9471,0.48682 -0.82767,0 -2.0004,0.02658 -2.7258,0.38934 -0.4939,0.24722 -1.1487,0.34082 -1.3629,0.8765 -0.34195,0.85486 -0.62854,0.94705 -1.4603,1.3632 -0.48389,0.242 -1.5504,0.5766 -1.9471,0.97336 -0.30246,0.30273 -0.47034,1.3803 -0.87601,1.4607 0.0286,0.01718 0.63785,0.54874 0.77872,0.58404 0.59866,0.14987 1.3774,0.09744 2.0444,0.09744 0.80606,0 1.5096,0.09741 2.3364,0.09741 0.71097,0 1.1336,-0.48688 1.7524,-0.48688 0.82867,0 1.6536,-3.05e-4 2.4338,0.19476 0.65042,0.16254 1.2633,0.38946 1.9469,0.38946 0.724,0 1.132,-0.03961 1.7524,-0.19476 0.78729,-0.1969 1.2614,-0.15671 1.655,-0.68149 0.34628,-0.46194 0.63815,-0.74631 1.0709,-1.0711 0.34582,-0.25937 1.6551,-1.6552 1.947,-1.6553 0.72556,0 1.2559,-0.21625 1.9469,-0.38928 0.47498,-0.11877 0.49359,-1.2645 0.97363,-1.1684 0.28198,0.05646 0.86063,0.75861 1.1682,0.68155 0.2677,-0.06702 0.59903,-0.13974 0.87622,-0.0972 0.27719,0.04211 0.50168,0.25397 0.58414,0.58408 0.1622,0.64886 0.3493,0.62805 0.68137,1.071 0.16278,0.2171 0.97125,1.1779 0.87616,1.558 -0.11554,0.46277 -0.22577,1.2386 -0.0971,1.7524 0.12882,0.51602 0.15335,1.086 0.38925,1.5579 0.15772,0.31552 0.60324,1.0497 0.68152,1.363 0.15247,0.6105 0.49173,0.59424 0.77887,1.1684 0.3418,0.68405 0.17175,0.98209 -0.0974,1.6551 -0.23026,0.57578 -0.56592,1.2421 -0.38959,1.9474 0.0365,0.14545 0.0612,0.34103 0.0975,0.48688 0.10873,0.43564 0.17117,0.67151 0.29208,0.77875 0.12067,0.1073 0.29034,0.0975 0.77862,0.0975 0.57449,0 1.3664,0.0034 1.655,0.29193 0.39026,0.39053 0.77893,0.60983 0.77893,1.1684 0,0.40198 -0.22214,1.4742 -0.58429,1.6552 -0.26169,0.13101 -1.0707,0.83398 -1.0707,1.2657 0,0.54227 0.0973,1.1544 0.0973,1.6552 0,0.10941 -0.0265,0.28366 0,0.38959 0.16159,0.64645 0.2991,1.4742 0.58414,2.0446 0.2244,0.44873 0.72763,0.84546 0.97357,1.4605 0.21726,0.5434 0.23868,1.3538 0.48672,1.85 0.27405,0.54828 0.54819,0.99933 0.77878,1.4604 0.27316,0.54636 0.43744,1.6059 0.87616,2.0448 0.517,0.51703 0.72372,0.86774 1.1684,1.4604 0.38141,0.50888 0.86597,1.1582 1.2653,1.5578 0.35483,0.35504 0.71668,0.81409 1.1685,1.2658 0.92966,0.93002 1.4911,1.4759 2.6283,2.0447 0.58243,0.29135 1.2589,0.58072 1.8496,0.87625 0.66769,0.33395 1.2321,0.77814 1.7524,1.1684 0.59161,0.44379 1.2067,1.0855 2.0444,0.87622 0.72598,-0.18161 1.8432,-0.0454 2.5311,-0.38959 0.22626,-0.11301 0.47534,-0.18665 0.68143,-0.38922 0.2063,-0.20267 0.38129,-0.50314 0.19464,-0.87653 -0.15164,-0.30338 -0.48669,-0.79614 -0.48669,-1.2656 0,-0.79779 -0.19464,-1.5158 -0.19464,-2.3367 0,-0.58164 -0.0349,-1.0294 0.0973,-1.558 0.1044,-0.41797 0.13394,-1.0213 0,-1.5577 -0.16486,-0.66028 -0.031,-1.2925 -0.19464,-1.9474 -0.13592,-0.54392 -0.0974,-1.2445 -0.0974,-1.8498 0,-0.56741 -0.0323,-1.039 0.0974,-1.5578 0.15247,-0.60998 0.0974,-1.246 0.0974,-1.85 0,-0.51788 -0.0867,-1.0926 0.0973,-1.4605 0.18793,-0.37601 0.43402,-1.2806 0.97351,-1.4606 0.45538,-0.15167 2.0444,-0.49585 2.0444,-1.0709 0,-0.6412 -0.061,-1.12 -0.19479,-1.6552 -0.15381,-0.6153 -0.55737,-1.2216 -0.19464,-1.9473 0.41696,-0.83432 1.2333,-1.0605 1.7524,-1.7526 0.29541,-0.39416 0.8071,-0.80722 1.2654,-1.2658 0.34448,-0.3443 1.1008,-0.64371 1.2657,-0.97357 0.21356,-0.42716 0.48679,-1.0631 0.48679,-1.558 0,-0.34857 0.15149,-1.5794 -0.19479,-1.7526 -0.50384,-0.25183 -1.0708,-0.16336 -1.0708,-0.77887 0,-0.40915 0.44147,-1.356 0.29205,-1.6552 -0.23612,-0.4726 -0.49942,-0.87942 -1.2657,-1.0709 -0.60373,-0.151 -1.434,-0.26743 -2.0443,-0.38946 -0.36969,-0.07391 -1.2108,-0.18259 -1.3629,-0.48679 -0.1734,-0.34695 -0.34256,-1.2912 -0.68143,-1.4607 -0.55231,-0.27622 -1.1762,-0.29196 -1.8498,-0.29196 -0.1702,0 -2.2708,-0.50336 -1.5574,-0.6814 0.70908,-0.17743 0.68808,-0.30572 0.97336,-0.87646 0.1619,-0.32379 0.48715,-0.87579 0.1947,-1.2657 -0.40729,-0.54349 -0.96176,-0.76727 -1.3629,-1.1685 -0.53247,-0.53268 -1.7658,-0.77884 -2.5311,-0.77884 -0.10901,0 -0.18625,0.02646 -0.29205,0 -0.4314,-0.10788 -0.83337,-0.54141 -1.1682,-0.87631 -0.49622,-0.49658 -1.3952,-0.71399 -2.0444,-0.87622 -0.49136,-0.12283 -0.79208,-0.53894 -1.3628,-0.68173 -0.56305,-0.14056 -1.1666,-0.14526 -1.7524,-0.29193 -0.76489,-0.19134 -1.5811,-0.33588 -2.3365,-0.48703 -0.28049,-0.05594 -2.2611,-0.20267 -2.1417,-0.6814 0.0731,-0.29294 0.44925,-0.97357 0.87616,-0.97357 0.58578,0 1.2777,0.1145 1.8498,0 0.74649,-0.14941 1.5124,-0.29233 2.3366,-0.29211 0.75171,0 1.5084,0.04855 2.2388,0.1947 0.91299,0.18274 1.9244,0.06723 2.8233,0.29208 0.70618,0.17654 1.7942,0.29205 2.5311,0.29205 1.0381,0 2.2472,-0.09744 3.31,-0.09744 1.6236,0 3.0738,-0.38928 4.6728,-0.38928 0.92523,0 1.2415,-0.56409 1.9471,-0.68155 0.35751,-0.05966 0.66174,-0.16278 0.77872,-0.29227 0.11716,-0.12909 0.0151,-0.26392 -0.48672,-0.38946 -0.6106,-0.15259 -1.3147,0.06064 -1.947,-0.09732 -0.47519,-0.11877 -1.23,-0.29187 -1.7523,-0.29187 -0.75125,0 -1.3944,-0.09744 -2.1417,-0.09744 -0.53479,0 -1.0174,0.1568 -1.5575,0.29196 -0.71164,0.17804 -1.3953,0 -2.1418,0 h -2.3365 c -1.046,0 -2.1446,-0.19452 -3.1152,-0.19452 -0.6326,0 -1.2514,-0.09744 -1.7524,-0.09744 -0.99451,0 -2.1473,-0.0028 -2.9206,-0.38944 -0.72082,-0.36072 -1.2437,-0.57889 -2.0444,-0.77905 -0.37006,-0.09256 -1.2283,-1.0711 -1.5576,-1.0711 z m 62.11,1.1684 c -1.2202,0.25427 -2.4801,0.401 -3.602,0.68179 -1.4192,0.35471 -2.2942,1.0084 -3.6019,0.6814 -0.90979,-0.22745 -1.7738,-0.2963 -2.7259,-0.48688 0.30899,0.3092 0.1604,0.71219 -0.0974,1.071 -0.25775,0.35898 -0.67978,0.63178 -0.87622,0.77896 -0.0287,0.02151 -2.2446,0.26916 -2.3364,0.29218 -0.52753,0.13187 -0.32199,0.48697 0,0.87625 0.32214,0.38953 0.81558,0.73947 0.97366,0.7789 1.2037,0.30115 2.7229,1.0208 3.7966,1.5578 0.46149,0.23086 0.67752,0.41309 0.77872,0.68164 0.10138,0.2684 0.0887,0.64652 0.19476,1.0711 0.20938,0.8378 0.33185,1.0908 1.071,1.4604 0.64633,0.32327 2.0968,0.38953 2.8231,0.38953 1.1768,0 2.9171,0.58307 3.7967,0.87616 0.74149,0.24719 1.8426,1.064 2.3364,1.5579 0.51288,0.51315 1.0021,0.8168 1.5577,1.558 0.64343,0.858 1.2946,1.3288 2.1416,1.7524 0.73221,0.36627 1.8769,0.3544 2.3364,0.58414 0.83615,0.41824 1.8521,1.0736 2.4339,1.6553 0.68613,0.6864 1.2315,1.3288 1.7522,1.85 0.67639,0.67651 0.83884,1.4324 1.655,2.0446 0.83545,0.62683 1.5062,1.1168 2.1418,1.7526 0.73721,0.73727 1.3959,1.1038 2.0444,1.7524 0.51013,0.51034 1.0152,1.2517 1.8496,1.4606 1.1352,0.28381 1.8573,-0.44 2.8232,-0.68155 0.47318,-0.11856 2.1859,1.6638 2.4336,1.85 0.57419,0.43033 1.1287,1.2839 1.3631,1.7525 0.26651,0.53339 1.1696,1.2673 1.5576,1.6552 0.75015,0.75024 0.92834,0.90237 1.8496,1.363 0.37762,0.18881 0.80826,0.22006 1.1681,0.0973 0.36017,-0.12231 0.60812,-0.38846 0.68155,-0.681699 0.2034,-0.81369 0.51559,-1.2477 0.29202,-2.1418 -0.13162,-0.52692 -0.0499,-1.1268 0.19464,-1.5579 0.24487,-0.431 0.64313,-0.65207 1.3631,-0.29208 0.51422,0.25745 0.84143,1.0989 1.0709,1.5579 0.32349,0.64758 0.77872,1.504 0.77872,2.4339 v 2.239599 c 0,0.35455 4.0946,2.6346 4.1861,2.7263 0.52484,0.52463 1.2323,0.85403 1.8496,1.2656 0.67947,0.45312 1.1186,0.90018 2.0443,1.3632 0.52499,0.26254 0.80795,0.74957 0.97366,1.2657 0.16553,0.51611 0.20456,1.0315 0.0974,1.4604 -0.12018,0.48123 0.28653,1.58 0.0974,2.3368 -0.14664,0.58704 -0.25497,1.0523 -0.1947,1.3631 0.0601,0.31082 0.31122,0.44766 0.97342,0.77884 0.96048,0.48026 1.3235,1.2422 2.3364,1.85 0.52985,0.31802 0.94546,4.0329 1.2657,4.6736 0.36887,0.73785 0.78296,1.7354 0.58408,2.5315 -0.21594,0.86392 -0.58408,1.5049 -0.58408,2.4341 0,0.66226 -0.5191,1.5899 -0.68152,2.2394 -0.15469,0.61984 -0.44931,1.2743 -0.58414,1.7525 -0.13474,0.47821 -0.10953,0.79349 0.58414,1.071 0.90182,0.36087 2.3857,0.7789 3.3099,0.7789 h 2.9206 c 0.46439,0 0.93308,0.93207 1.363,1.9473 0.43002,1.0152 0.79126,2.1068 0.87628,2.5315 0.17999,0.90118 0.41583,1.292 0.97345,1.8499 0.73129,0.73163 1.8004,1.3606 2.0444,2.3367 0.27841,1.1145 0.66299,1.3997 0.19467,2.3368 -0.22784,0.45602 -1.8277,0.81656 -2.3364,1.071 -0.73035,0.3653 -1.9578,0.49857 -3.0179,0.77899 -0.52994,0.1402 -1.0112,0.34491 -1.363,0.58414 -0.35159,0.2391 -0.58408,0.55548 -0.58408,0.97363 0,0.95316 0.38361,1.3516 0.77893,2.142 0.4299,0.86038 0.82739,1.525 1.3629,2.2394 0.0874,0.11642 0.189,0.28656 0.29205,0.38946 0.59372,0.59393 0.53119,1.5199 1.0709,2.2394 0.74396,0.9928 1.1112,1.8336 1.6548,2.9211 0.52341,1.0469 1.7046,1.8519 2.3364,3.1154 0.35294,0.70621 0.97366,2.0508 0.97366,3.0185 0,0.76337 0.4028,1.5139 0.58408,2.2394 0.13824,0.55328 0.69983,1.0907 1.2656,1.4605 0.56592,0.36969 1.1392,0.64981 1.655,0.77884 0.91101,0.22781 1.9677,0.0973 2.9206,0.0973 1.0089,0 1.6271,-0.29187 2.5311,-0.29187 0.52118,0 1.2605,-1.3564 1.5576,-1.7527 0.65048,-0.86749 1.029,-1.3903 1.2655,-2.3366 0.1275,-0.51034 0.26038,-1.0194 0.29214,-1.5581 0.0315,-0.5383 -0.0711,-1.0444 -0.48679,-1.4603 -0.35428,-0.35452 -0.41455,-0.70383 -0.38944,-1.0712 0.0251,-0.36697 0.13544,-0.73202 0.38944,-1.0709 0.13638,-0.18201 0.19464,-2.5151 0.19464,-2.6289 0,-0.0944 -1.2363,-1.6485 -1.4602,-1.9472 -0.54684,-0.72928 -0.68527,-1.6624 -1.0709,-2.4342 -0.41592,-0.83231 -0.48672,-1.5629 -0.48672,-2.6288 v -2.4342 c 0,-1.1139 -0.50943,-1.483 -1.071,-2.0446 -0.591,-0.59122 -0.56702,-1.1 -0.77869,-1.9474 -0.14545,-0.5813 -0.0782,-0.92212 0.0973,-1.1682 0.17563,-0.24637 0.51444,-0.41034 0.87613,-0.6817 0.59918,-0.44934 0.77884,-1.3973 0.77884,-2.1419 -1.2e-4,-0.53748 -0.16861,-1.0812 -0.19464,-1.4606 -0.0261,-0.37942 0.058,-0.67175 0.48672,-0.77884 0.39444,-0.0989 0.84106,0.22571 1.1682,0.58408 0.32721,0.35843 0.54773,0.79529 0.68143,0.97372 0.5072,0.67645 0.61114,1.0667 1.2657,1.5578 0.87936,0.65988 2.1627,0.98407 2.9206,1.3632 0.80121,0.40076 1.5341,0.80975 2.1416,1.2656 0.75284,0.56485 1.3814,1.0896 1.8496,1.5577 0.44714,0.44727 0.57742,1.3218 0.97366,1.85 0.41513,0.55374 0.8812,0.6864 1.3628,1.1685 0.51984,0.51993 0.81537,1.5336 1.071,2.0446 0.28311,0.56644 0.48019,0.78635 0.68127,0.7789 0.20145,-0.007 0.45142,-0.27441 0.87628,-0.48679 0.26868,-0.13458 -0.41843,-2.1606 -0.48679,-2.4342 -0.19016,-0.7609 -1.2632,-1.845 -1.5576,-2.4341 -0.3143,-0.62869 -0.21289,-0.89752 0,-0.8764 0.21258,0.0214 0.55945,0.26758 0.77872,0.48688 0.64401,0.64416 1.2586,0.86218 1.7524,1.85 0.21387,0.42767 1.027,1.027 1.4603,1.4605 0.63446,0.63474 0.54645,1.2128 0.77878,2.1422 0.0822,0.32864 0.2872,0.40723 0.48679,0.38922 0.19943,-0.0176 0.44678,-0.18155 0.68158,-0.38922 0.46936,-0.4158 0.95212,-1.0288 1.0707,-1.2658 0.29111,-0.58246 0.3783,-1.2323 0.58408,-1.85 0.26813,-0.80472 0.13705,-1.4993 -0.0972,-2.1421 -0.23456,-0.64279 -0.62704,-1.2267 -0.87628,-1.85 -0.22284,-0.55716 -0.56732,-1.0432 -0.87613,-1.5579 -0.93613,-1.5604 -1.7112,-3.0331 -2.531,-4.6734 -0.0402,-0.0803 -0.058,-0.11392 -0.0974,-0.19486 -19.28,-32.034 -50.11,-56.203999 -86.837,-66.694999 z m -95.015,12.852 c -0.49002,0 -1.2718,0.92828 -1.5575,1.0712 -0.62686,0.31338 -1.2814,1.034 -1.8499,1.4603 -0.59125,0.4436 -1.0912,0.84277 -1.6548,1.2658 -0.64319,0.48254 -1.0698,0.58429 -2.0445,0.58429 -0.92453,2.44e-4 -0.94528,0.4238 -1.655,0.77896 -0.83014,0.41507 -1.5977,1.7351 -1.947,2.434 -0.32916,0.65875 -0.80164,1.4832 -1.1682,1.85 -0.44562,0.44577 -1.2398,0.71719 -1.7523,0.97372 -0.61121,0.30542 -0.38934,1.5121 -0.38934,2.142 0,0.4209 -1.6408,0.48694 -1.7523,0.48694 -0.22336,0 -1.5172,-1.9068 -1.655,-2.0448 -0.68854,-0.68884 -0.3302,-0.81271 -1.363,-1.0711 -0.55911,-0.13974 -1.0137,-0.0921 -1.2656,-0.19467 -0.2518,-0.1026 -0.38937,-0.37805 -0.38937,-1.071 0,-0.75116 0.89914,-1.094 1.2656,-1.4606 0.44553,-0.44534 1.3225,-0.75867 1.7523,-0.97354 0.62628,-0.31338 0.89035,-0.89032 1.3629,-1.3632 0.58691,-0.58701 0.68149,-1.2621 0.68149,-2.142 0,-0.27448 -1.3851,-0.83862 -1.655,-0.9736 -0.6181,-0.3092 -1.0106,-0.99219 -1.7523,-1.3632 -0.0134,0.0077 -0.084,-0.0074 -0.0974,0 -13.958,7.843 -26.464,17.859 -37.188002,29.599 -0.11964,0.60144 -0.17552,1.3248 -0.38948,1.7524 -0.40869,0.81796 -0.98213,0.98233 -1.5576,1.558 -0.43082,0.43085 -0.65959,1.2363 -0.97343,1.6553 -0.45201,0.60254 -1.1374,0.84531 -1.6549,1.363 -0.50168,0.50177 -0.48668,1.643 -0.48668,2.3369 0,0.65671 0.29016,0.89844 0.58398,0.8761 0.29376,-0.0223 0.5491,-0.31924 0.7789,-0.77881 0.28424,-0.56888 1.7085,-1.4519 2.2391,-1.85 0.72789,-0.5462 1.7645,-0.90042 2.1417,-1.6552 0.34103,-0.68216 0.66631,-1.1075 0.87616,-1.9472 0.27887,-1.116 0.89589,-1.5972 1.4602,-2.7264 0.20172,0.63025 0.5314,1.4077 1.1683,2.0448 0.29131,0.2915 0.42749,0.71362 0.38942,1.0711 -0.03813,0.35739 -0.25038,0.69537 -0.38942,0.97345 -0.21909,0.4386 -1.1006,1.1009 -1.5577,1.558 -0.55354,0.55383 -0.85815,0.54813 -1.1681,1.1685 -0.33476,0.66952 -0.89093,0.8371 -1.0709,1.5576 -0.16821,0.67319 -0.51312,1.1767 -0.68141,1.8498 -0.24022,0.96112 -0.08084,1.5413 -0.77892,2.2396 -0.47339,0.47348 -0.74127,1.4073 -0.87625,1.9474 -0.23927,0.95792 -0.66924,1.2078 -1.2655,1.655 -0.64984,0.48779 -0.8846,1.494 -1.071,2.2396 -0.24384,0.97571 -1.4048,2.0305 -1.8496,2.9209 -0.38219,0.76468 -0.68239,0.87805 -1.0708,1.6553 -0.26976,0.53992 -0.30882,1.43 -0.48686,2.1418 -0.19748,0.79022 -0.64215,1.5378 -1.1682,2.2394 -0.0872,0.11664 -0.28645,0.1893 -0.38934,0.29218 -0.51974,0.52002 -0.87616,1.7197 -0.87616,2.4341 0,0.66507 -0.89676,1.8347 -1.0708,2.5314 -0.237,0.94791 -0.42294,1.7221 -0.77896,2.434 -0.43919,0.87888 -0.85536,1.2243 -1.2655,2.0447 -0.45116,0.90283 -0.71425,1.4288 -1.0708,2.1421 -0.28641,0.57327 -0.29199,1.3961 -0.29199,2.1422 0,0.65579 -0.22861,1.6932 -0.38937,2.3366 -0.17838,0.71338 0,1.6975 0,2.4343 0,0.95435 -0.34129,1.5095 -0.87627,2.0446 -0.62697,0.62714 -1.028,0.99689 -1.2655,1.9474 -0.15033,0.60159 -0.55275,1.3978 -0.87611,2.0444 -0.42796,0.85602 -0.47983,1.3535 -1.071,2.1422 -0.44569,0.59439 -0.76898,1.5186 -0.97346,2.3367 -0.21727,0.86938 -0.28774,1.5491 -0.68137,2.3368 -0.39639,0.79312 -0.48184,1.3432 -0.68149,2.142 -0.19348,0.77466 -0.51904,1.3304 -0.77884,1.85 -0.37546,0.75104 -0.38921,1.5567 -0.58411,2.3368 -0.21258,0.85086 -0.29199,1.8723 -0.29199,2.7259 0,0.74841 -0.38948,1.6626 -0.38948,2.5316 0,0.89774 -0.09396,1.6412 -0.29201,2.4342 -0.19109,0.76468 -0.09743,1.5819 -0.09743,2.4341 0,1.2116 -0.29199,2.3704 -0.29199,3.6025 0,0.9473 0.37408,1.1072 0.58411,1.9473 0.18481,0.74008 0.11089,1.6124 0.29195,2.3365 0.08847,0.35382 0.19486,0.64206 0.19486,1.0714 0.29416,1.1774 1.0709,1.5255 1.0709,2.726 0,0.94379 0.09897,1.3696 0.29187,2.1421 0.18837,0.75336 0,1.7508 0,2.5314 0,0.77936 -0.30144,1.7902 -0.48666,2.5315 -0.02498,0.0998 0,0.189 0,0.29202 0,0.93134 -0.29201,1.9172 -0.29201,2.9209 0,0.28586 0.57619,1.6395 0.77867,2.0447 0.37581,0.75162 0.58002,1.833 0.77887,2.6291 0.29404,1.1765 0.62549,2.1961 1.0708,3.3103 0.3546,0.8865 0.39685,1.5763 0.77879,2.5312 0.24998,0.62472 -0.03831,1.7939 0.09738,2.3369 0.18961,0.75845 0.19472,1.647 0.19472,2.4341 0,0.88721 0.19487,1.59 0.19487,2.434 -1.68e-4,0.84302 0.10478,1.588 0.29195,2.3368 0.2238,0.89606 0.09737,1.558 0.3894,2.142 0.49399,0.9884 0.95758,1.2022 1.1682,2.0448 0.21059,0.8429 0.5016,1.6168 0.68152,2.3367 0.21048,0.84256 1.0676,1.5459 1.2655,2.3368 0.27182,1.0873 1.2564,2.0554 1.7523,3.2131 0.3071,0.71668 0.31149,1.5963 0.58421,2.142 0.25859,0.51733 1.4543,0.96899 1.8496,1.2657 0.36946,0.27713 0.36758,0.58887 0.48674,0.87634 0.1192,0.2876 0.31746,0.54187 0.87616,0.68155 0.66876,0.16718 1.1099,0.83246 1.5575,1.1682 0.58948,0.44235 -0.30801,-1.4272 -0.4866,-2.1419 -0.2021,-0.80853 -1.0139,-1.6574 -1.363,-2.2394 -0.3266,-0.54471 -0.04543,-1.8433 -0.2921,-2.3368 -0.40179,-0.80383 -0.76204,-1.4909 -0.9736,-2.3367 -0.22494,-0.90024 -0.6521,-1.7332 -0.8761,-2.6289 -0.22826,-0.91406 -0.57458,-1.5387 -0.97346,-2.3367 -0.47687,-0.95419 -1.0708,-1.3042 -1.0708,-2.4342 0,-0.72556 -0.5567,-1.9896 -0.87616,-2.6288 -0.33624,-0.67258 -0.19475,-2.0268 -0.19475,-2.8236 0,-0.78238 -0.29211,-1.4218 -0.29211,-2.2393 0,-0.96561 -0.26384,-1.9319 -0.48679,-2.8236 -0.2049,-0.82031 -0.48657,-1.5539 -0.48657,-2.4342 0,-0.65064 0.17035,-0.87085 0.29195,-0.7789 0.12155,0.092 0.19463,0.51794 0.19463,1.0712 0,0.60571 0.82155,1.2408 0.97365,1.8498 0.21452,0.85855 0.36462,1.7505 0.58404,2.6289 0.17262,0.69076 -0.18819,1.6807 0,2.4343 0.21538,0.86212 0.6816,1.3618 0.6816,2.3366 0,0.814 0.29188,1.4055 0.29188,2.1422 0,0.53284 0.64624,1.6112 0.77885,2.1419 0.20882,0.83572 0.37767,1.7052 0.58403,2.5315 0.17496,0.69928 0.57346,1.6119 0.77885,2.4341 0.16692,0.668 0.58398,1.4926 1.0708,2.1419 0.42357,0.56482 0.50447,1.593 0.77896,2.142 0.43565,0.87189 0.6451,1.3877 1.0707,2.2394 0.34541,0.69089 0.59934,1.2292 0.77885,1.9473 0.20311,0.81262 0.90916,1.9158 1.2655,2.6289 0.33931,0.6785 0.72031,1.4212 0.87628,2.0446 0.23003,0.92114 0.45401,1.9791 0.8761,2.8236 0.34166,0.68368 0.67653,1.3532 0.97348,1.9474 0.42499,0.85025 0.98134,1.468 1.5576,2.0447 0.70406,0.70395 1.6811,1.0438 2.5311,1.4603 0.85022,0.41675 1.5344,0.88019 1.7523,1.7527 0.18854,0.75397 0.80273,1.6056 1.0709,2.1421 0.39656,0.79312 1.1415,1.5311 1.7523,2.1421 1.6161,1.6165 2.9799,3.3398 5.062302,4.3815 0.7052,0.35251 1.174,0.5611 2.0445,0.77881 0.87778,0.21954 1.5917,0.3092 2.3363,0.68146 0.75082,0.3757 1.4489,0.48694 2.3365,0.48694 0.353,0 1.2446,0.82224 1.8497,0.9736 0.53931,0.13504 1.4125,-0.18253 2.1416,0 1.0024,0.25052 1.3196,-0.6438 2.3365,-0.38937 0.94153,0.23532 2.3845,2.3971 3.2125,3.0182 0.73331,0.55017 1.497,1.1301 2.3366,1.85 0.76773,0.65839 1.3015,1.0314 2.239,1.2658 0.74692,0.18695 1.1638,0.28967 1.7523,0.58414 0.62997,0.31512 1.6887,0.0974 2.4339,0.0974 0.71411,0 1.4297,1.0405 1.8496,1.4606 0.9978,0.99805 2.172,1.5657 2.8231,2.4342 0.57202,0.76288 0.89954,1.7758 1.5577,2.434 0.59226,0.59232 1.423,1.3256 2.1418,2.0447 0.59467,0.59479 1.2733,1.0048 1.4602,1.7523 0.19989,0.79996 1.16,1.1644 1.7524,1.4607 0.65289,0.32645 1.5331,0.52936 2.1418,0.68149 0.54291,0.13586 1.421,1.3339 1.8496,1.6553 0.32684,0.2453 2.0049,-0.19467 2.5312,-0.19467 0.6857,0 1.5276,0.9985 1.9471,1.5579 0.47775,0.63748 0.77527,1.1683 1.6548,1.1683 0.90613,0 1.6645,-0.39886 2.2391,-0.97382 0.45584,-0.45557 0.58408,-1.6926 0.58408,-2.3366 0,-0.59863 1.546,0.76721 1.8497,1.0711 0.47507,0.47519 1.0977,1.1952 1.4603,1.5577 0.68481,0.68497 1.6172,1.5797 1.9471,2.2394 0.33081,0.6618 0.13895,1.544 0.48672,2.2394 0.38852,0.77747 0.70541,1.2325 1.1683,1.8498 0.49338,0.65814 0.48672,1.1886 0.48672,2.2394 0,0.84522 0.19464,1.5125 0.19464,2.3368 0,0.7207 -0.61548,1.002 -0.77879,1.6553 -0.1954,0.78165 -0.48671,1.3275 -0.48671,2.3368 0,0.69983 -1.2655,1.4034 -1.2655,2.4341 0,0.77905 0.78088,1.9559 0.97336,2.7261 0.22089,0.88385 0.46735,2.0059 0.87628,2.8237 0.47122,0.94269 1.2021,0.81677 1.4601,1.8498 0.22171,0.8869 0.27832,1.7947 0.48679,2.6288 0.19629,0.78558 0.68884,1.1 0.87622,1.85 0.16302,0.65277 0.66461,1.2489 1.071,1.6552 0.5018,0.50195 1.3573,0.99652 2.0442,1.1684 1.2448,0.31104 1.7053,0.81329 2.3365,1.6553 0.55438,0.73938 0.83426,1.5263 1.6548,2.1421 0.8161,0.61212 1.1768,0.6897 1.7523,1.2656 0.13138,0.13135 0.23523,0.18915 0.38953,0.29211 0.77652,0.51788 0.99091,1.1769 1.947,1.6553 0.77573,0.388 1.4402,1.0392 2.1417,1.4604 0.88928,0.53375 1.3535,0.9201 2.2391,1.363 0.76227,0.38141 1.348,1.1121 2.0444,1.4605 0.75775,0.37915 1.3186,0.69208 2.239,0.87628 0.74533,0.14923 1.701,0.42523 2.3366,0.58429 0.96497,0.24133 1.8914,0.41034 2.6284,0.77881 0.69247,0.34619 1.45,1.1581 1.8496,1.558 0.57538,0.57532 1.5389,1.0128 2.2392,1.3628 0.5286,0.26471 1.2581,0.72662 1.7522,0.97388 0.98428,0.49219 1.3714,1.1988 2.2392,1.8497 0.66834,0.50159 1.1251,1.1253 1.6548,1.6552 0.64584,0.64624 1.0361,1.5231 1.5576,2.0445 0.62238,0.62286 0.88281,1.2924 1.071,2.0447 0.2359,0.94446 0.88699,1.4822 1.2655,2.2396 0.37311,0.7464 1.4473,1.1831 1.947,1.8499 0.48477,0.64636 1.4314,0.9447 1.947,1.4604 0.67688,0.67706 1.2706,0.88275 1.8498,1.6553 0.56299,0.75067 1.1658,0.97101 1.5575,1.3631 0.55341,0.55347 1.3543,0.82318 1.8496,1.0709 0.14917,0.0745 0.24054,0.13824 0.38956,0.19495 4.121,-0.21082 8.1423,-0.53217 12.169,-1.0712 0.0324,-0.0776 0.17166,-0.10266 0.19486,-0.19464 0.25647,-1.0266 1.5091,-1.8259 2.0443,-2.6288 0.55356,-0.83075 1.4316,-0.92896 2.1417,-1.071 0.84457,-0.16901 1.2187,-0.73212 1.8496,-1.363 0.6438,-0.64416 1.2594,-1.2573 1.8497,-2.0447 0.58234,-0.77667 0.79147,-1.3152 1.2656,-1.9473 0.56088,-0.74823 0.67896,-1.4556 1.0709,-2.2396 0.44836,-0.89722 0.92227,-1.5809 1.655,-1.9473 0.85236,-0.42645 1.0976,-1.0776 1.8496,-1.2656 1.0055,-0.25171 1.4415,-0.65259 2.3363,-0.8764 0.72516,-0.18146 1.9182,-1.9183 2.3366,-2.3368 0.6145,-0.61475 1.0328,-1.0201 1.6548,-1.85 0.22955,-0.30609 0.41538,-0.70728 0.68152,-0.97363 0.20584,-0.25738 0.37836,-0.42407 0.5842,-0.68158 0.34531,-0.43182 0.36112,-1.8336 0.48657,-2.3367 0.1788,-0.71552 0.54294,-1.67 0.87631,-2.3369 0.34247,-0.68506 0.22983,-1.6276 0.58404,-2.3366 0.39423,-0.78839 0.64218,-1.4792 0.97366,-2.1421 0.37027,-0.74091 0.12112,-1.6053 0.48657,-2.3367 0.37604,-0.75201 0.60052,-1.4932 0.87622,-2.0447 0.39471,-0.7898 0.25153,-1.0505 1.2653,-1.5578 0.54221,-0.27094 1.0987,-1.196 1.5577,-1.6551 0.42838,-0.42865 0.66736,-1.7241 0.87628,-2.1421 0.36514,-0.73041 1.2809,-1.3785 1.7523,-1.8501 0.37277,-0.37292 0.72467,-1.2116 1.0709,-1.5577 0.41418,-0.41418 0.47873,-1.6234 0.58398,-2.0447 0.16818,-0.67175 0.1214,-1.4587 0.29233,-2.142 0.18805,-0.75287 -0.54709,-1.3259 -0.87631,-1.6553 -0.62482,-0.62482 -1.043,-1.4393 -1.8496,-2.0447 -0.69376,-0.52039 -1.1772,-0.78778 -1.5576,-1.1682 -0.50046,-0.50055 -1.3886,-0.74289 -2.0446,-1.071 -0.55978,-0.28015 -1.0703,-0.3895 -1.9469,-0.3895 h -2.5311 c -0.88788,0 -1.3557,0.19461 -2.1418,0.19461 -0.8389,1.5e-4 -1.4005,0.19488 -2.2389,0.19488 h -2.3364 c -0.69864,0 -1.2256,-0.3895 -2.0445,-0.3895 -0.8389,0 -0.91403,-0.56955 -1.3628,-1.1684 -0.40186,-0.5361 -1.4674,-0.68155 -2.1417,-0.68155 -0.9151,0 -1.762,-0.0974 -2.8232,-0.0974 -1.2259,0 -1.4291,0.32513 -2.3366,0.77896 -0.642,0.32114 -1.2556,0.76901 -1.655,1.1684 -0.46503,0.46521 -1.4919,0.75266 -2.0442,0.97363 -0.72607,0.29044 -1.6527,0.17099 -2.3365,0 -0.46579,-0.11649 -0.60883,-0.42407 -0.68143,-0.77902 -0.0728,-0.35458 0,-0.80139 0,-1.2657 0,-0.90152 0.5303,-1.309 1.0709,-1.8498 0.35165,-0.35193 0.29205,-1.5946 0.29205,-2.1421 0,-1.088 0.11792,-1.2244 -0.29205,-2.0447 -0.35208,-0.70419 -1.0673,-0.97006 -1.4604,-1.3631 -0.46585,-0.46603 -0.81677,-1.3039 -1.2655,-1.7526 -0.42914,-0.42917 -0.8753,-1.2639 -1.1682,-1.8499 -0.29031,-0.58102 -1.1166,-0.89911 -1.655,-1.1686 -0.66952,-0.33469 -1.6887,-0.44638 -2.239,-0.58408 -0.67319,-0.1683 -1.6385,0 -2.3366,0 h -2.239 c -0.82455,0 -1.4631,0.19476 -2.23911,0.19476 -0.58135,0 -1.14199,0.38931 -1.9471,0.38931 -0.63445,0 -1.2217,-0.88248 -1.6549,-1.4604 -0.56781,-0.75726 -1.2644,-0.87482 -1.75229,-1.3631 -0.52082,-0.52106 -1.1498,-0.66299 -1.55771,-1.071 -0.48303,-0.48337 -1.8071,-0.7196 -2.43369,-0.87625 -0.92079,-0.23022 -1.6916,-0.45654 -2.3365,-0.77896 -0.88829,-0.44424 -0.922,-0.87067 -1.3628,-1.7526 -0.37524,-0.75055 -0.68158,-1.1649 -0.68158,-1.9471 0,-0.61987 -0.37839,-1.6333 -0.58402,-2.0447 -0.1486,-0.29748 -0.39264,-0.62228 -0.4867,-0.77905 -0.30142,-0.60303 -0.0414,-0.93634 0.0973,-1.1683 0.13886,-0.23196 0.18845,-0.34247 -0.38925,-0.48679 -0.0702,-0.0175 -1.4199,1.2598 -1.5577,1.3632 -0.61539,0.46149 -1.0776,0.36658 -1.9471,0.58398 -1.2825,0.32083 -1.4181,0.26468 -2.531,-0.29211 -0.46295,-0.23138 -0.53967,-0.50653 -0.68152,-0.68146 -0.14194,-0.17496 -0.27527,-0.27197 -0.97342,-0.0974 -0.71097,0.17783 -1.2395,0.66849 -1.8498,0.97376 -0.68875,0.34445 -1.0454,0.41907 -1.655,0.87616 -0.62958,0.4725 -1.7542,0.82913 -2.3365,1.2658 -0.5372,0.40295 -1.9623,-0.34848 -2.2391,-0.48672 -0.73004,-0.36551 -0.74985,-1.6375 -0.87616,-2.142 -0.17041,-0.68195 -0.36481,-0.76498 -0.58408,-0.58429 -0.21893,0.18048 -0.4856,0.67944 -0.68143,1.071 -0.25168,0.50357 -0.6174,0.64545 -0.97342,0.68149 -0.35608,0.0361 -0.65039,-0.0332 -0.97366,-0.19486 -0.0913,-0.0457 0.0974,-2.0456 0.0974,-2.3366 0,-0.37964 -1.2265,-1.4214 -1.363,-1.5579 -0.36862,-0.36877 -0.60172,-0.27957 -0.77878,0 -0.17691,0.27972 -0.32101,0.73975 -0.48672,1.071 -0.37918,0.75876 -0.39554,1.6862 -0.58414,2.6289 -0.15927,0.79721 -0.19458,1.6303 -0.19458,2.4342 0,0.55676 -0.48257,0.96942 -0.87613,1.3631 -0.36566,0.36588 -0.42517,-0.14151 -0.38944,-0.87634 0.0357,-0.73474 0.19867,-1.6348 0.0973,-2.142 -0.164,-0.82016 -0.48029,-1.5319 -0.68152,-2.3367 -0.16711,-0.66888 -0.13406,-1.3393 -0.38944,-1.85 -0.24353,-0.48734 -0.67206,-0.0815 -1.0708,0.48694 -0.39871,0.56808 -0.81305,1.3437 -0.97342,1.5578 -0.62207,0.82944 -1.9601,1.6075 -2.4338,2.2394 -0.224,0.29855 -1.4937,0.79553 -1.8498,0.97357 -0.81818,0.40912 -1.8478,1.6295 -2.5311,2.1419 -0.64978,0.48773 -0.58408,1.8716 -0.58408,2.629 -7e-5,0.95496 0.31988,0.82031 -0.1947,1.8498 -0.24274,0.48541 -0.6344,0.46225 -0.97357,0.29208 -0.3392,-0.1701 -0.55206,-0.45462 -0.68143,-0.58411 -0.54138,-0.54135 -0.96237,-0.77618 -1.7524,-0.97366 -0.86292,-0.21573 -1.5331,0.21277 -2.2391,0.38922 -0.95428,0.23883 -1.8237,0.65085 -2.7257,0.87646 -0.73086,0.18283 -1.7889,-0.0335 -2.434,-0.1947 -0.54608,-0.13648 -1.0655,-0.87091 -1.5576,-1.3631 -0.62058,-0.62082 -0.83472,-0.82083 -1.4603,-1.6554 -0.47372,-0.63193 -0.62729,-1.0788 -1.2655,-1.5576 -0.78397,-0.58816 -0.9581,-0.26117 -1.3629,-1.0712 -0.34793,-0.69604 -0.58279,-1.1669 -0.97351,-1.5578 -0.39401,-0.39407 -0.29205,-1.3674 -0.29205,-2.1419 0,-0.7587 -0.19482,-1.7147 -0.19482,-2.5315 0,-0.78778 -0.15552,-1.5958 -0.29193,-2.1421 -0.17105,-0.68424 -0.0973,-1.6555 -0.0973,-2.3368 0,-0.57321 -0.9736,-1.144 -1.4604,-1.2655 -0.80698,-0.20181 -1.377,-0.38946 -2.6284,-0.38946 h -5.257 c -0.58606,0 -0.73392,-0.12369 -1.0708,-0.29233 -0.13339,0 -0.87628,-2.0541 -0.87628,-2.3365 0,-0.84546 -0.19464,-1.5124 -0.19464,-2.3369 0,-0.80786 -0.14838,-1.5672 -0.29211,-2.1418 -0.15857,-0.63498 -0.10638,-1.399 -0.29205,-2.1422 -0.16827,-0.67328 0,-1.6386 0,-2.3367 0,-0.84448 0.19473,-1.2472 0.19473,-2.1421 0,-0.59918 0.0973,-1.4379 0.0973,-2.142 0,-0.90591 -0.51071,-1.5698 -1.2656,-1.9473 -0.65884,-0.32956 -1.4531,-0.19476 -2.239,-0.19476 -0.80438,0 -1.3143,0.20685 -2.0445,0.38937 -0.82724,0.207 -1.2335,1.1364 -1.5575,1.4608 -0.55151,0.55145 -0.60019,1.4267 -0.77884,2.1419 -0.17099,0.6839 -0.0973,1.6553 -0.0973,2.3368 0,0.38162 -0.85477,1.4718 -0.97366,1.947 -0.21561,0.86322 -1.3992,1.3814 -1.9469,1.6553 -0.81216,0.40631 -2.211,-0.0832 -2.8232,-0.38944 -0.50092,-0.25061 -1.3944,-1.6968 -1.6549,-2.0444 -0.42105,-0.56165 -0.88397,-0.98142 -1.2657,-1.3634 -0.51962,-0.51959 -0.98822,-0.7984 -1.5574,-1.5577 -0.44278,-0.59052 -0.7637,-1.2353 -0.97366,-1.6553 -0.36902,-0.73825 -0.47162,-1.2354 -0.8761,-2.0447 -0.36673,-0.73367 -0.84856,-1.5023 -1.2656,-2.3365 -0.46048,-0.9213 -0.47659,-1.353 -1.071,-1.9474 -0.61539,-0.61575 -0.77872,-1.4744 -0.77872,-2.3369 0,-0.86408 -0.29205,-1.7718 -0.29205,-2.6289 0,-0.78207 -0.29211,-1.519 -0.29211,-2.3367 1.6e-4,-0.78238 0,-1.519 0,-2.3367 1.6e-4,-0.72256 0.48679,-1.3185 0.48679,-2.1421 0,-0.8985 -0.19467,-1.2964 -0.19467,-2.1421 0,-1.0165 0.0818,-1.5186 0.48679,-2.5314 0.26074,-0.65216 1.0106,-1.1449 1.2655,-1.6552 0.30624,-0.61264 0.62949,-1.0664 1.071,-1.6552 0.44598,-0.595 1.1313,-0.94083 1.8496,-1.1683 0.7182,-0.22766 1.4629,-0.41461 2.1416,-0.58411 1.0556,-0.26416 1.9435,-0.14716 2.9206,0.0973 1.0593,0.26495 2.0939,0.38944 3.2126,0.38944 0.53888,0 0.79782,0.26453 1.0708,0.48672 0.27301,0.22241 0.54083,0.42477 1.0709,0.29218 0.53982,-0.1351 0.3895,-1.8775 0.3895,-2.3368 0,-0.55115 -0.21515,-0.84042 -0.19473,-1.0709 0.0203,-0.23056 0.26581,-0.42511 0.77878,-0.6817 0.89801,-0.44888 1.0296,-0.58417 2.1418,-0.58417 0.98257,0 1.9016,0.19479 2.823,0.19479 0.54584,-1e-4 1.3396,0.62122 1.8498,0.87622 0.49649,0.24841 0.80591,0.2507 1.1681,0.29218 0.3623,0.0414 0.69308,0.17752 1.0709,0.68149 0.51767,0.69046 1.2582,1.1609 1.7523,1.6552 0.53955,0.53982 1.5707,0.83398 2.0444,1.0709 0.34726,0.17386 0.29083,1.9423 0.38946,2.3368 0.1879,0.75214 0.63385,1.365 0.97342,2.0446 0.47427,0.94873 0.69647,1.9845 1.0708,2.921 0.2681,0.67023 0.51941,1.3308 0.77896,1.8499 0.40961,0.8197 0.64551,1.1991 1.3627,1.5578 0.59064,0.29529 1.2007,0.32462 1.8498,0.48685 0.76865,0.19226 1.3924,-0.49362 1.7523,-0.97382 0.2775,-0.36996 0.20221,-0.9263 0.0973,-1.4603 -0.10471,-0.53406 -0.30444,-1.0592 -0.48676,-1.3632 -0.5759,-0.96005 -0.40341,-1.8915 -0.77881,-3.0183 -0.29575,-0.88748 -0.91013,-1.7328 -1.363,-2.3368 -0.45187,-0.60269 -0.53558,-1.6556 -0.8761,-2.3367 -0.36377,-0.72751 -0.59277,-1.3 -0.77881,-2.0448 -0.18335,-0.73322 -0.23142,-1.5097 -0.38944,-2.142 -0.24408,-0.97656 0.32373,-1.784 0.97342,-2.434 0.48187,-0.48193 0.5455,-0.81909 0.68158,-1.3632 0.77805,-0.77829 1.195,-1.7084 1.655,-2.6286 0.39255,-0.78574 0.58417,-1.4226 0.58417,-2.3369 0,-0.47827 0.44147,-0.97855 0.97345,-1.4605 0.53204,-0.48178 1.1569,-0.95822 1.4603,-1.363 0.56549,-0.75406 1.3411,-1.5143 1.7523,-2.3368 0.34674,-0.69394 1.034,-1.2155 1.2656,-2.142 0.15851,-0.63507 0.10632,-1.3991 0.29205,-2.1421 0.20645,-0.82638 0.38525,-1.5413 0.58398,-2.3367 0.199,-0.79572 0.18964,-1.4807 0,-2.2395 -0.18475,-0.73932 -0.49283,-1.4727 -0.77878,-2.0447 -0.38614,-0.77249 -0.92056,-1.2126 -1.3628,-1.6553 -0.34882,-0.34882 -0.29193,-1.777 -0.29193,-2.3366 0,-0.49643 1.4889,-0.48694 1.9469,-0.48694 0.71054,0 1.5529,-0.46118 2.0444,-0.5842 0.45477,-0.11368 1.0889,-1.2044 1.3628,-1.7525 0.34222,-0.68469 0.57507,-1.3267 0.77893,-2.1422 0.22012,-0.88116 -0.19479,-1.5616 -0.19479,-2.3365 0,-0.66553 0.73788,-1.3913 1.2656,-1.6552 0.75897,-0.37973 1.2117,-0.68179 2.1418,-0.68179 0.90103,0 1.6607,0.19476 2.5311,0.19476 1.0403,0 1.2726,-0.30609 1.655,-1.0708 0.28833,-0.57709 0.19464,-1.649 0.19464,-2.3368 0,-0.78876 -0.0496,-1.5617 -0.19464,-2.1422 -0.11813,-0.47272 0.0927,-0.95496 0.19464,-1.363 -0.13055,-0.52301 0.93872,-2.1069 1.0709,-2.2393 0.50845,-0.50861 1.0692,-1.0214 1.7524,-1.3632 0.5852,-0.29266 1.2638,-0.77686 1.8498,-1.3631 0.6311,-0.63153 1.1722,-1.3671 1.5576,-1.7525 0.56986,-0.57037 0.65173,-1.1386 1.1681,-1.6553 0.24356,-0.24341 0.13266,1.7795 0,2.0446 -0.18961,0.37942 -0.0926,0.64645 0.0973,0.97382 0.19,0.32696 0.50623,0.66165 0.58423,0.97351 0.12668,0.50647 -0.0837,0.84622 -0.0974,1.0711 -0.0137,0.22461 0.0937,0.3895 0.77872,0.3895 0.96011,0 1.204,-0.26596 1.5577,-0.97378 0.37747,-0.75519 1.054,-0.83923 1.7523,-1.3631 0.52872,-0.39661 0.82761,-1.0222 1.3628,-1.5579 0.62915,-0.62933 1.0632,-0.7681 1.655,-1.5578 0.50952,-0.67914 1.189,-0.6919 1.947,-1.0709 1.0651,-0.53293 0.57748,-1.2641 1.7523,-1.5579 0.72516,-0.18137 1.1822,-0.8067 1.4604,-1.363 0.29071,-0.58164 -0.48672,-1.4234 -0.48672,-2.0447 0,-0.99252 -0.26837,-1.364 -0.77887,-2.0446 -0.27545,-0.3674 -0.54382,-0.4342 -0.77887,-0.38962 -0.23492,0.0446 -0.39493,0.2002 -0.58398,0.38962 -0.46405,0.46414 -0.68155,1.6548 -0.97357,2.2393 -0.4061,0.81235 -0.20175,1.344 -0.87622,1.8501 -0.49307,0.36969 -1.7933,-1.0045 -2.1418,-1.2658 -0.61121,-0.45862 -1.5266,-0.58423 -2.3363,-0.58423 -0.49979,0 -0.75024,0.19165 -0.97351,0.29205 -0.22336,0.10052 -0.44275,0.0882 -0.77887,-0.58408 -0.26889,-0.53815 -0.17532,-1.675 -0.29199,-2.1421 -0.1059,-0.42319 -0.3649,-0.60071 -0.48685,-0.77884 -0.12198,-0.1781 -0.042,-0.44486 0.3894,-0.87637 0.56448,-0.56461 0.87616,-0.32169 0.87616,-1.3633 0,-0.78458 0.67947,-1.362 1.2657,-1.655 0.76068,-0.38049 0.35068,-0.9736 1.4602,-0.9736 0.77274,0 1.5758,-0.2525 2.0444,-0.48679 0.44238,-0.2215 0.70364,-0.52341 0.68143,-0.77896 -0.022,-0.25549 -0.26254,-0.38946 -0.77887,-0.38946 -0.97394,0 -1.5367,0.58414 -2.5311,0.58414 -0.6145,0 -1.6002,0.67068 -2.1418,0.7789 -0.78021,0.1561 -1.5247,0.0891 -2.3363,0.29218 -0.83588,0.20889 -1.4829,0.85754 -2.3366,1.0709 -0.75259,0.18829 -1.6934,1.4196 -1.8496,2.0447 -0.24332,0.97409 -1.0376,1.8166 -1.7523,2.5315 -0.71353,0.71362 -1.0606,0.7355 -1.7524,0.38944 -0.0919,-0.0458 1.0468,-1.9964 1.2656,-2.4341 0.50348,-1.007 0.6676,-1.641 1.5576,-2.5316 0.67569,-0.67563 1.3825,-1.0902 1.9471,-1.6552 0.66312,-0.66315 0.97897,-1.3401 1.8496,-1.5578 0.88736,-0.22189 1.8838,-0.0973 2.8232,-0.0973 0.89142,-2.2e-4 1.4743,-0.38968 2.239,-0.38968 0.71173,0 1.5125,-0.98807 2.1417,-1.4602 0.72113,-0.5412 1.8942,-0.51535 2.7259,-0.68176 0.94601,-0.18915 1.3386,-0.43802 1.6548,-1.071 0.34848,-0.69696 1.2689,-0.58725 1.7525,-1.0711 0.34552,-0.34576 0.38733,-0.71286 0.48672,-0.97357 0.0992,-0.2605 0.18155,-0.45908 0.68134,-0.58414 0.76639,-0.19156 1.6095,-0.13467 2.2391,-0.29196 0.6731,-0.16824 1.5412,0 2.2391,0 0.54804,0 0.91071,-0.0827 1.0709,-0.29208 0.16016,-0.20953 0.19479,-0.56866 0.19479,-0.97366 0,-0.76068 -0.43918,-1.4128 -0.9736,-1.9474 -0.61352,-0.61371 -0.94351,-1.2057 -1.363,-2.0447 -0.36166,-0.72372 -0.69211,-1.5793 -0.97342,-2.1421 -0.33206,-0.66428 -0.58423,-1.4606 -0.87622,-2.0446 -0.39264,-0.78589 -1.2013,-1.201 -1.8496,-1.3632 -0.66476,-0.16605 -1.4717,-0.88757 -1.8497,-1.2657 -0.45987,-0.46005 -0.91202,-0.9274 -1.3628,-1.2657 -0.64658,-0.48505 -0.953,-0.54303 -1.2656,-1.1684 -0.29523,-0.59073 -0.70514,-1.1184 -1.0707,-1.8499 -0.28403,-0.56787 -0.69586,-0.90478 -0.97366,-1.4604 -0.2952,-0.59082 -0.0852,-1.5335 -0.29205,-1.9473 -0.27945,-0.5592 -0.48822,-1.4634 -0.77872,-2.0446 -0.32761,-0.65533 -0.53534,-0.77844 -0.87616,-1.4608 -0.43472,-0.86948 0.0983,-1.3619 -0.48694,-1.9471 -0.55469,-0.55496 -0.58682,-1.0237 -1.2656,-1.3633 -0.41629,-0.20798 -0.58115,-0.39908 -0.77872,-0.48663 -0.19763,-0.0875 -0.40799,-0.0395 -0.87607,0.19476 -0.0844,0.042 -0.69534,1.488 -0.77893,1.6552 -0.35324,0.70676 -0.84857,0.84857 -1.5576,1.5578 -0.6539,0.65414 -1.0317,1.0902 -1.363,1.7526 -0.29282,0.58588 -1.4674,0.19287 -1.8496,0.0975 -0.35288,-0.0883 -0.41867,-0.4462 -0.38934,-0.87631 0.0294,-0.43027 0.0883,-0.91263 0,-1.2659 -0.16824,-0.67322 0,-1.6384 0,-2.3366 1.6e-4,-0.3346 0.36526,-0.34326 0.77887,-0.38953 0.41373,-0.0464 0.9317,-0.15274 1.1682,-0.38946 0.29242,-0.29279 0.46622,-0.45645 0.48676,-0.68161 0.0203,-0.22504 -0.11237,-0.50192 -0.48676,-0.87616 -0.43686,-0.43695 -1.5324,-0.26141 -2.0444,-0.38962 -1.085,-0.27127 -1.5133,-0.16141 -2.3366,-0.77881 -0.7287,-0.5466 -1.1529,-1.0099 -1.3629,-1.8499 -0.13742,-0.55032 -1.298,-0.44623 -1.8496,-0.58423 -0.77765,-0.19461 -1.5828,-0.19461 -2.4337,-0.19461 -0.72983,-2.1e-4 -1.285,0.58893 -2.0444,0.77884 -0.42636,0.10675 -0.78568,-0.0712 -1.0709,-0.0973 -0.28513,-0.0263 -0.51993,0.0347 -0.68143,0.68146 -0.21429,0.85687 -0.55948,1.4109 -0.87622,2.0446 -0.26053,0.521 -0.29208,1.3792 -0.29208,2.1422 0,0.94873 -0.25705,1.1135 0,2.142 0.17484,0.69955 -0.065,1.6228 -0.19479,2.142 -0.19815,0.79303 0.19742,1.5472 0,2.3368 -0.25272,1.0111 -0.53381,1.3659 -0.0972,2.2394 0.405,0.81006 0.83093,0.98749 1.0708,1.9472 0.19275,0.77167 -0.29208,1.5633 -0.29208,2.3368 0,0.66873 -0.9794,1.4681 -1.2656,1.8499 -0.35849,0.4783 -0.77872,1.2909 -0.77872,1.9472 -1e-4,0.53384 -1.2674,0.92593 -1.5577,1.0711 -0.77332,0.38672 -1.1858,1.0292 -1.6549,1.6552 -0.36475,0.48633 -0.38937,1.6431 -0.38937,2.2395 0,0.76196 -0.19479,1.5272 -0.19479,2.3367 v 2.3369 c 0,0.79034 0.19177,1.1801 0,1.9471 -0.18433,0.73755 -1.0738,1.2186 -1.5575,1.4605 -0.45584,0.22806 -0.8905,-0.0248 -1.1682,-0.38946 -0.27765,-0.36466 -0.48676,-0.88586 -0.48676,-1.1682 9e-5,-0.82367 0,-1.708 0,-2.5317 9e-5,-0.65778 -0.19464,-1.4352 -0.19464,-2.1419 v -2.4343 c 0,-0.95279 -0.29901,-1.3904 -0.48685,-2.1419 -0.1185,-0.474 -1.196,-1.1961 -1.5576,-1.5579 -0.53052,-0.53055 -1.2505,-0.96612 -1.8497,-1.2658 -0.49277,-0.24628 -1.2042,-0.91232 -1.5576,-1.2657 -0.74262,-0.74295 -1.1989,-1.035 -1.5576,-1.7526 -0.37088,-0.74194 -1.3398,-0.87622 -2.1418,-0.87622 -0.84985,6e-5 -1.6814,-0.19022 -2.3364,-0.68143 -0.47125,-0.35348 -0.58417,-1.5416 -0.58417,-2.0449 0,-0.97687 -0.11728,-1.7558 -0.29193,-2.6287 -0.1434,-0.71674 -0.0593,-1.7102 0.0973,-2.3367 0.21933,-0.87805 1.172,-1.5656 1.4602,-2.1421 0.40289,-0.80603 1.6824,-1.3904 2.3365,-2.0446 0.62884,-0.62906 0.9667,-1.5526 1.7523,-2.1422 0.99496,-0.74655 2.0287,-1.3062 3.1152,-1.85 0.57428,-0.28711 0.64999,-1.105 0.87622,-1.5576 0.40512,-0.81052 0.65582,-1.5321 1.1682,-2.0447 0.62817,-0.62851 1.1791,-1.179 1.7523,-1.7527 0.49716,-0.49719 1.8905,-0.38934 2.1418,-0.38934 0.3432,0 0.96991,1.8427 1.0708,2.0447 0.21314,0.42615 0.37497,0.6622 0.68158,0.77884 0.30649,0.11688 0.77853,0.0827 1.1682,0 0.77918,-0.16498 1.6764,-0.57623 2.7258,-0.87616 0.58444,-0.16711 1.2834,-1.2747 1.8496,-1.558 0.55102,-0.27536 0.58408,-1.5626 0.58408,-2.2393 0,-0.88834 -0.0972,-1.3558 -0.0972,-2.1419 0,-0.44156 -1.2893,-0.93671 -1.5576,-1.0711 -0.37595,-0.18799 -0.41104,-0.6203 -0.29199,-1.0709 0.11874,-0.45084 0.41351,-0.90064 0.58408,-1.071 0.48239,-0.4827 1.3169,-0.81613 1.9469,-0.97376 0.83749,-0.20935 1.6047,-0.16952 2.2391,-0.48685 0.68478,-0.34235 0.86673,-0.76932 1.3631,-1.2657 0.77118,-0.77145 0.84872,-1.2534 1.0707,-2.142 0.16324,-0.653081 0.0765,-1.668801 0.19464,-2.141901 0.19675,-0.78702 0.94666,-1.5218 1.2657,-1.9474 0.23438,-0.31256 0.33102,-0.58679 0.58417,-0.7789 0.25296,-0.1922 0.57791,-0.29211 1.1683,-0.29211 0.5618,0 0.92654,0.02493 1.1681,0.19486 0.24155,0.16959 0.38324,0.47455 0.58411,0.87616 0.28839,0.57715 0.0974,1.649 0.0974,2.3369 0,0.8269 -0.64255,1.1292 -1.0709,1.5577 -0.38757,0.387661 1.3578,1.213301 1.5576,1.363201 0.31009,0.23239 0.13779,0.73248 -0.19464,1.2657 -0.33261,0.53323 -0.81589,1.0476 -0.87622,1.1684 -0.25388,0.50763 -0.89798,1.017 -1.2655,1.7526 -0.4891,0.9783 -0.58578,1.12 -1.9471,1.4604 -0.88266,0.22052 -1.6037,0.89929 -2.1416,1.1682 -0.38437,0.19235 -0.3999,0.46408 -0.29218,0.77899 0.10791,0.31497 0.2742,0.66382 0.38944,0.7789 0.67487,0.67499 0.96625,0.65549 1.8497,0.87631 1.0493,0.26254 1.4226,-0.0502 2.0443,0.77896 0.42248,0.56338 0.59708,0.80456 0.87622,1.3631 0.39639,0.79334 0.85422,1.2753 1.0709,2.1419 0.096,0.38449 1.5418,0.52765 2.0443,0.77896 0.65399,0.32706 1.6732,0.39856 2.2392,0.68164 0.71658,0.35837 1.046,0.57782 1.8496,0.77887 0.64899,0.16226 0.86154,0.48309 1.6549,0.68158 0.47369,0.11853 0.76697,0.15448 0.97357,0 0.2066,-0.15463 0.28452,-0.45709 0.38934,-0.87625 0.0869,-0.34802 -0.29452,-0.77951 -0.68149,-1.0709 -0.38675,-0.29156 -0.7699,-0.43384 -0.87616,-0.487 -0.81543,-0.40787 -1.1331,-0.54904 -1.655,-1.071 -0.42322,-0.42364 -0.61279,-0.79462 -0.58408,-1.0711 0.0288,-0.27622 0.27606,-0.47076 0.58408,-0.77875 0.29956,-0.29962 0.6214,-0.20486 0.97366,0 0.35202,0.20471 0.74728,0.55261 0.87607,0.68149 0.3374,0.33756 0.73392,0.24393 1.0709,0 0.33707,-0.24396 0.54108,-0.70404 0.5842,-0.87631 0.15463,-0.61908 0.29193,-1.0262 0.29193,-1.9473 0,-0.96316 -0.64322,-1.1265 -0.38934,-2.1421 0.10693,-0.42819 -0.25641,-0.74796 -0.68158,-0.97357 -0.42502,-0.22552 -0.92444,-0.40137 -1.1681,-0.58426 -0.78354,-0.58758 -1.1618,-0.57077 -1.5577,-1.3631 -0.28519,-0.57059 -0.0915,-0.87274 0.19479,-0.97333 0.28632,-0.10101 0.6557,-0.0554 0.87622,0 0.88525,0.22113 1.0461,0.65646 1.6548,1.2656 0.69293,0.69296 0.68845,1.0743 1.4604,1.4604 0.74423,0.37219 0.74185,0.97366 1.5575,0.97366 0.51849,0 0.58429,-1.5703 0.58429,-2.0448 0,-0.83224 -0.3895,-1.4483 -0.3895,-2.3368 0,-0.35254 0.82217,-0.96243 0.97357,-1.2657 0.23016,-0.46066 0.20743,-0.86346 0,-1.1684 -0.20758,-0.30502 -0.56784,-0.56778 -0.77884,-0.77881 -0.55499,-0.555211 -1.0311,-0.796691 -1.363,-1.460601 -0.38025,-0.7609 -1.1873,-1.09 -1.8496,-1.7524 -0.10007,-0.20038 -0.43176,0.009 -0.77887,0.09726 -0.34689,0.08817 -0.68942,0.06552 -0.87616,-0.68146 -0.17899,-0.71704 0.22778,-1.6897 0.38944,-2.337 0.18411,-0.73608 0.60172,-0.94614 0.77887,-1.6552 0.13886,-0.55597 0.44388,-0.71668 0.58408,-0.8761 0.1402,-0.15958 0.17026,-0.3411 -0.0974,-0.87646 -0.1871,-0.37433 -1.1838,-0.7865 -1.5576,-0.97351 -0.61945,-0.31003 -1.0086,-0.8139 -1.363,-1.1686 -0.34128,-0.34137 -0.19455,-1.8155 -0.19455,-2.3367 0,-0.38974 -0.18768,-0.70236 -0.48694,-0.87631 -0.29904,-0.17355 -0.65723,-0.23123 -0.97336,-0.38928 -0.56009,-0.28033 -1.2023,-0.29211 -2.0446,-0.29211 -0.67276,0 -1.7108,-0.13586 -2.3363,-0.29202 -0.71906,-0.18002 -1.6597,0.17142 -2.1417,0.29202 -0.67319,0.1683 -1.6387,0 -2.3365,0 -0.79791,0 -1.0834,-0.29523 -1.8496,-0.48694 -0.49387,-0.12347 -1.6323,0.86478 -2.0444,1.0709 -0.41776,0.20911 -0.59686,0.05441 -0.68127,-0.29187 -0.0847,-0.34668 -0.0975,-0.83218 -0.0975,-1.1685 v -2.3368 c 0,-0.32864 -0.24002,-0.50421 -0.58408,-0.58414 -0.34396,-0.07986 -0.77219,-0.09741 -1.0709,-0.09741 z m 84.404,9.4445 c -0.41461,0.08579 -0.76428,0.4288 -0.87622,0.87616 -0.12988,0.51978 -0.19336,1.2604 -0.29199,1.6553 -0.0309,0.12384 -1.9253,-0.24243 -3.0179,0.19482 -0.4621,0.18488 -1.1248,0.47592 -1.5576,0.58414 -0.59424,0.14847 -0.41626,0.57434 -0.2919,1.0711 0.15515,0.62082 1.9013,0.74301 2.4337,0.87631 0.37268,0.09308 0.87402,0.77661 1.2655,1.1684 0.38956,0.38983 1.0515,0.66699 1.4603,0.97351 0.31812,0.23862 0.65384,0.94592 1.0709,1.3632 0.43289,0.43317 1.1789,0.63534 1.7523,0.77881 0.69421,0.17374 1.1288,-0.19458 1.8497,-0.19458 0.58816,0 1.1016,0.29199 1.7524,0.29199 0.6741,0 1.1436,-0.29199 1.7523,-0.29199 0.49576,0 0.69742,-0.80005 0.97351,-1.1683 0.36191,-0.48285 0.3895,-1.2297 0.38944,-1.8501 0,-0.57394 -0.18793,-1.1414 -0.29208,-1.5579 -0.12375,-0.49524 -1.102,-0.7435 -1.363,-1.2658 -0.32742,-0.65524 -0.34702,-0.82022 -1.0708,-1.363 -0.49359,-0.37012 -1.3881,-0.7915 -1.7524,-0.97357 -0.5787,-0.28943 -1.001,-0.53183 -1.4604,-0.87637 -0.30399,-0.22821 -0.76587,-0.29211 -1.2656,-0.29211 h -1.0709 c -0.14432,-0.03604 -0.25125,-0.0285 -0.38928,0 z m 34.268,12.56 c -0.62775,0.0823 -0.77878,1.0277 -0.77862,1.8499 0,0.82895 -1.1109,1.5878 -1.4604,1.8498 -0.48074,0.36063 1.9496,1.3152 2.1418,1.3633 0.82156,0.20541 1.5044,0.90436 2.3363,1.0709 0.6001,0.12006 1.5941,0.77396 2.3365,1.0709 0.42584,0.17053 0.55844,0.79492 0.68137,1.4606 0.12329,0.66544 0.19464,1.3426 0.19464,1.7526 0,0.84683 -0.005,1.7334 0.19479,2.5315 0.2081,0.83224 0.44244,1.1503 0.1947,2.1418 -0.11829,0.47388 -0.17572,0.83557 -0.1947,1.1685 -0.0189,0.33298 0.0332,0.6174 0.38934,0.97357 0.63965,0.63998 2.4406,0.29886 3.2127,1.0711 0.76425,0.76468 1.361,1.2826 2.239,2.3368 0.45038,0.54059 -0.0416,1.5161 0.58408,2.142 0.4295,0.42966 1.8536,0.51034 2.3364,0.38953 0.3403,-0.0852 0.50308,-2.0119 0.58417,-2.3369 0.10184,-0.40744 0.70071,-0.6206 1.3629,-0.68146 0.66214,-0.0608 1.4232,0.0302 1.7523,0.19476 0.58527,0.29269 0.6474,1.2069 0.48688,1.8499 -0.12106,0.48444 -0.0188,0.80313 0.19464,1.0711 0.21347,0.26773 0.52866,0.50787 0.87613,0.68164 0.64069,0.32022 1.4975,0.20956 1.9471,0.0972 0.71426,-0.17865 1.0346,-1.1931 1.3628,-1.85 0.22263,-0.44522 0.31766,-0.78073 0.38944,-1.0709 0.0718,-0.29013 0.12152,-0.54752 0.58414,-0.77896 0.65466,-0.32754 0.95953,-0.83469 0.77872,-1.558 -0.19675,-0.78778 -0.41763,-1.5166 -0.77872,-2.2392 -0.48035,-0.96066 -1.4945,-1.3157 -2.3364,-1.9472 -0.64322,-0.48294 -0.57758,-0.65536 -0.77893,-1.4605 -0.13504,-0.5415 -1.0626,-0.96948 -1.6548,-1.2658 -0.5452,-0.27258 -0.90247,-1.23 -1.5576,-1.5579 -0.95181,-0.47592 -1.8645,-0.61938 -2.7259,-1.2655 -0.87579,-0.65701 -1.6449,-0.89304 -2.5311,-1.558 -0.85638,-0.64243 -1.6078,-1.413 -2.3364,-2.1419 -0.7186,-0.71878 -1.422,-1.0328 -1.947,-1.5578 -0.64459,-0.64484 -1.6542,-1.022 -2.3364,-1.3632 -0.88178,-0.44083 -1.3768,-0.95969 -2.1417,-1.2658 -0.92401,-0.3696 -1.5817,-0.4686 -2.434,-0.68161 -0.29102,-0.0726 -0.61868,-0.33224 -0.87592,-0.48672 -0.11014,-0.0276 -0.20258,-0.0117 -0.2923,0 z m -85.085,46.248 c -0.26038,0.26056 -0.74133,0.0301 -1.0708,0.19467 -0.35315,0.17682 -0.50458,0.85004 -0.58408,1.1686 -0.13083,0.52264 -0.0852,1.0098 -0.19479,1.5579 -0.12463,0.62265 0.0622,1.6114 0.19479,2.1418 0.10492,0.41998 -0.56903,0.94327 -0.77899,1.3631 -0.21597,0.43246 -0.49301,0.78735 -0.77862,1.1684 -0.33545,0.44742 -0.2843,1.4212 -0.38953,1.9472 -0.12524,0.62683 -0.15604,1.1111 -0.29199,1.6554 -0.10321,0.41248 -0.0973,0.82016 -0.0973,1.2658 0,0.33694 0.80017,0.54599 1.0709,0.68155 0.29034,0.14517 0.44394,-0.20013 0.58408,-0.5842 0.14004,-0.38434 0.25708,-0.84134 0.48669,-1.0711 0.46982,-0.46985 0.71338,-0.68155 1.363,-0.68155 0.42511,0 0.8804,-0.0973 1.3628,-0.0973 0.26993,0 0.82413,0.16861 1.071,0.29202 0.46854,0.23434 0.75455,0.46246 1.0708,0.77887 0.37656,0.37677 0.2659,0.82108 0.87631,0.97382 0.49661,0.12408 0.81091,0.38944 1.3628,0.38944 h 2.9206 c 0.59335,0 0.58423,-0.3775 0.58423,-0.97388 0,-0.52371 0.0759,-0.88779 0.19464,-1.363 0.12116,-0.48535 -0.10483,-0.80844 -0.19464,-1.1686 -0.10571,-0.42282 -0.79971,-0.897 -1.071,-1.1682 -0.60498,-0.60519 -1.2691,-0.50101 -1.4602,-1.266 -0.089,-0.35562 0.0974,-0.88443 0.0974,-1.2655 0,-0.37091 0.0973,-0.75162 0.0973,-1.1683 0,-0.49841 -0.31293,-0.72342 -0.48663,-1.071 -0.21475,-0.42941 -0.61502,-0.38937 -1.071,-0.38944 -0.42847,0 -1.0363,-0.10996 -1.4602,-0.19482 -0.47925,-0.0959 -0.74521,-0.0638 -1.0707,-0.38953 -0.35669,-0.35648 -0.68158,-0.3013 -0.68158,-0.87619 0,-0.30075 -0.20624,-0.62994 -0.29199,-0.97357 -0.10214,-0.40845 -0.18509,-0.55267 -0.48688,-0.77896 -0.18118,-0.13596 -0.67261,-0.0974 -0.87613,-0.0974 z m 144.76,3.6999 c -0.49731,0.0718 -0.51398,1.8771 -1.0709,2.4342 -0.5145,0.51459 -1.0397,0.65024 -1.4603,1.0707 -0.72269,0.72305 -1.5932,1.3989 -2.3365,2.1423 -0.63684,0.63708 -0.74139,1.902 -1.0708,2.7263 -0.23584,0.58969 0,1.881 0,2.5315 0,0.827 -0.94928,2.1299 -1.2656,2.9206 -0.19846,0.49646 -0.36542,0.72321 -0.68143,0.8764 -0.31598,0.15335 -0.72897,0.1579 -1.2656,0.29211 -0.87189,0.21793 -1.5767,0.39893 -2.3364,0.77905 -0.55478,0.27728 -0.98151,1.4762 -1.2655,2.0446 -0.2941,0.58838 -0.13184,1.6955 -0.29202,2.3366 -0.25983,1.0396 -0.19971,2.2146 0,3.2129 0.16318,0.8165 0.29126,1.5544 0.48672,2.337 0.21149,0.84586 -0.15643,1.5992 -0.29208,2.1418 -0.20456,0.81857 -0.48596,1.5548 -0.68149,2.3369 -0.19852,0.79471 0.77887,1.5886 0.77887,2.4342 0,0.89105 0.22842,1.7148 0,2.6289 -0.14874,0.59448 0.13348,1.4638 0.48672,2.3367 0.35321,0.87289 0.83313,1.775 0.97342,2.3367 0.0967,0.38693 -2.0171,2.9504 -2.239,3.5052 -0.28189,0.7048 -0.69196,1.6403 -1.1682,2.4342 -0.48123,0.80237 0.0974,1.7076 0.0974,2.5315 0,0.85852 0.19455,1.8083 0.19455,2.7262 0,1.1278 0.19479,2.2852 0.19479,3.4078 0,1.0096 -1.0247,2.4437 -1.2656,3.4076 -0.22876,0.91538 0.0164,2.0772 0.3895,2.8238 0.27817,0.55664 -0.22696,1.9776 -0.3895,2.6286 -0.27414,1.0965 0.29205,2.3247 0.29205,3.4078 v 0.48697 c 0,1.5031 1.2278,3.5109 1.5576,5.1602 0.18036,0.9024 -0.32581,1.4009 -0.48672,2.0447 -0.24676,0.98703 0.28766,1.7351 0.48672,2.5314 0.32257,1.2905 0.0634,2.4046 -0.48672,3.5052 -0.2775,0.55533 -0.28323,0.97714 -0.1947,1.4605 0.0888,0.48352 0.29349,0.97702 0.48669,1.4605 0.37354,0.9339 0.0392,2.2012 0.29208,3.213 0.21527,0.86127 -0.0974,2.428 -0.0974,3.4078 0,0.70639 -0.28482,1.0401 -0.48672,1.4604 -0.2019,0.42035 -0.31113,0.89712 -0.0974,1.7526 0.0513,0.20587 0.0457,0.47552 0.0974,0.6814 0.17984,0.71918 1.678,2.2324 2.3363,2.7263 0.4595,0.3446 0.59396,0.71454 0.68146,1.0711 0.0879,0.35663 0.0976,0.71265 0.0976,1.2658 0,1.1682 0.12704,1.8793 0.87601,2.6288 0.45813,0.45831 1.3426,0.39468 1.8499,1.0711 0.41626,0.55512 0.38925,2.1133 0.38925,2.8235 0,0.86682 0.0226,1.3647 0.29214,1.8499 0.26935,0.4852 0.76587,0.96066 1.3629,1.5579 0.2572,0.25732 0.52145,0.42416 0.77878,0.68149 0.61121,0.61157 0.72104,1.6949 1.3628,2.3368 0.59549,0.59576 1.5224,1.3455 2.3366,1.7526 0.49115,0.24567 1.0029,0.0755 1.4601,-0.19476 0.45709,-0.27029 0.84076,-0.63055 1.1684,-0.87637 0.9595,-0.71954 1.6716,-1.3964 2.1417,-2.3367 0.63696,-1.2742 1.76,-2.6669 2.0442,-4.0892 0.10941,-0.54712 0.26239,-0.90079 0.58423,-1.1684 0.32175,-0.26755 0.82523,-0.4614 1.2655,-0.68155 0.7861,-0.3931 1.5288,-1.25 1.947,-1.9473 0.46069,-0.7681 1.2892,-1.2843 2.1418,-1.0709 0.65793,0.16458 1.1169,0.65039 1.4601,1.1682 0.34329,0.518 0.64908,1.0378 0.77902,1.5581 0.20819,0.83301 -0.63446,1.8531 -0.97366,2.5313 -0.56821,1.137 -0.30206,1.993 -1.0708,3.0183 -0.68649,0.91553 -1.0302,2.2551 -1.4603,3.1157 -0.58084,1.1622 -0.43161,2.9372 -0.68143,4.1868 -0.11112,0.55557 -0.50809,1.6599 -0.77884,2.3367 -0.31549,0.78885 -0.68152,2.2886 -0.68152,3.1156 0,1.0952 -1.1439,1.9957 -1.6549,3.0182 -0.6059,1.212 -1.059,2.453 -1.5576,3.7 -0.37747,0.94394 -0.83801,1.9485 -1.3629,2.8236 -0.46622,0.77747 -0.85989,1.5899 -1.0709,2.4342 -0.1944,0.77792 -0.7085,1.4172 -1.0708,2.142 -0.34314,0.68628 -0.40485,1.3936 -0.77887,2.1421 -0.69473,1.3895 -2.2453,3.803 -3.4073,4.9656 -1.0018,1.0022 -2.3014,2.3637 -2.8232,3.4077 -0.34247,0.68527 -0.55582,1.2093 -0.87631,1.8501 -0.46713,0.93481 -1.0908,1.9873 -1.6548,3.1156 -0.39435,0.78891 -1.0764,1.1792 -1.4604,1.9475 -0.39819,0.79651 -0.57913,1.1253 -0.68127,1.5576 22.26,-26.086 35.825,-59.919 35.825,-96.878 0,-18.861 -3.6398,-36.833 -10.027,-53.453 -0.65097,0.0512 -1.8027,0.29208 -2.5314,0.29208 -0.46906,2.4e-4 -0.81714,0.36209 -1.0707,0.77881 -0.25366,0.4169 -0.40366,0.93347 -0.48682,1.2659 -0.23074,0.92313 -0.18134,1.9712 0.0974,2.9209 0.27875,0.94949 0.74475,1.8157 1.2655,2.3367 0.39468,0.39468 0.63336,0.77789 0.58417,1.0709 -0.0492,0.29318 -0.3439,0.48697 -0.97351,0.48697 -0.68179,6e-5 -1.08,-0.10883 -1.3629,-0.29205 -0.28281,-0.18326 -0.43094,-0.431 -0.77881,-0.77896 -0.65967,-0.66003 -1.2601,-1.2142 -2.1418,-1.6551 -0.77933,-0.38983 -1.4454,-0.7229 -2.1416,-1.0711 -0.50064,-0.2504 -0.92627,-1.6578 -1.1683,-2.1419 -0.38052,-0.76126 -0.68127,-1.5284 -0.68127,-2.4344 -6e-5,-0.61545 -0.62769,-1.547 -0.87628,-2.0445 -0.301,-0.60223 -0.71869,-1.2425 -1.0708,-1.9472 -0.39362,-0.78748 -0.75397,-1.3202 -1.4605,-1.8499 -0.0899,-0.0677 -0.12338,-0.10776 -0.19458,-0.0975 z m -184.58,81.105 c -0.10815,0.0474 -0.24167,0.14416 -0.38944,0.29205 -0.43088,0.43076 -0.33026,0.34686 -1.0708,-0.0974 0.16034,0 2.0327,2.2522 2.4337,2.921 0.18881,0.31467 0.72788,0.41208 1.2655,0.38937 0.53784,-0.023 1.0554,-0.13321 1.3631,-0.19476 0.68921,-0.13785 0.86969,-0.54901 0.77872,-0.97357 -0.091,-0.4248 -0.45352,-0.90832 -0.77872,-1.0712 -0.84406,-0.42227 -1.4216,-0.74493 -2.3365,-0.97348 -0.7568,-0.18945 -0.94138,-0.43454 -1.2655,-0.29205 z m 1.7523,6.5233 c -0.57584,0.104 -1.4424,0.46884 -1.7523,0.77896 -0.24432,0.24438 -0.0424,0.70184 0.19464,1.1683 0.237,0.46652 0.57483,0.8577 0.68146,1.0712 0.29843,0.5968 2.0672,0.77881 2.726,0.77881 0.55347,0 0.80429,-0.25006 0.87601,-0.58414 0.0719,-0.33426 -0.0127,-0.73215 -0.0973,-1.0711 -0.1524,-0.6098 -0.90546,-1.1977 -1.2656,-1.5578 -0.36655,-0.36679 -0.0419,-0.0836 -0.87619,-0.58426 -0.11526,-0.0288 -0.29477,-0.0348 -0.48666,0 z m -7.8855,5.2579 c -1.1133,-0.003 -2.158,0.0322 -3.2126,0.87631 -1.2802,1.0241 -2.8306,2.8846 -3.6992,3.2129 0.19211,0.48056 0.34582,0.89667 0.68137,1.0709 0.33545,0.17453 0.84393,0.16229 1.363,-0.0974 0.85065,-0.42538 1.4167,-0.61096 2.1418,-0.97351 0.75168,-0.37598 1.3306,-0.68155 2.1418,-0.68155 1.041,0 1.7357,0.36087 2.6284,0.58414 0.67493,0.1687 1.1893,0.39978 1.947,0.7789 0.78793,0.39407 1.5105,0.73163 2.1418,1.3632 0.61337,0.61331 1.7455,0.91962 2.3364,1.3629 0.60712,0.45563 1.7271,0.94842 2.3365,1.5579 0.39496,0.39514 1.2302,1.248 1.8496,1.558 0.6539,0.3269 1.2119,0.2601 1.7523,0.0974 0.54025,-0.16309 1.0989,-0.38946 1.8497,-0.38962 0.54764,0 1.476,0.0545 2.3364,0.0974 0.86029,0.0428 1.6138,0.0413 1.9469,-0.29211 0.207,-0.20691 0.49176,-0.48816 0.58417,-0.77881 0.0924,-0.29059 -0.007,-0.53738 -0.58417,-0.6814 -0.82297,-0.20602 -1.5481,-0.4602 -2.4337,-0.68179 -1.2256,-0.30637 -0.83758,-0.85678 -1.8496,-1.363 -1.1465,-0.57342 -1.4861,-0.73657 -2.8232,-1.0712 -0.87592,-0.21899 -2.2039,-0.35388 -2.9206,-1.0709 -0.64481,-0.64508 -0.99057,-1.8098 -1.6549,-2.1422 -1.1618,-0.58099 -2.0504,-1.3836 -3.4073,-1.6552 -1.3542,-0.27084 -3.0104,-0.68158 -4.3809,-0.68134 -0.40408,0 -0.69965,8.2e-4 -1.0708,0 z m 25.993,8.86 c -0.2211,-0.02 -0.46106,0.0422 -0.68158,0.0974 -0.905,0.22632 -3.2681,0.0137 -3.4074,0.29205 -0.15427,0.25723 -0.35242,0.5105 -0.48657,0.7789 -0.31308,0.62622 -0.26053,0.8291 -0.0975,0.97372 0.16309,0.14447 0.47003,0.17789 0.77887,0.48679 0.11566,0.11588 0.39038,0.495 0.48676,0.87631 0.0963,0.38141 0.003,0.77716 -0.3894,0.97366 -0.0877,0.0438 -1.9825,1.0001 -1.947,1.071 0.25668,0.5134 0.5202,0.68143 1.6548,0.68143 0.94434,0 1.5939,0.12433 2.4339,0.29224 0.56506,0.11301 1.8011,0.42609 2.3363,0.29218 1.2659,-0.31665 2.212,-0.65457 3.018,-1.4606 0.67987,-0.68024 0.69049,-0.36731 1.947,-0.68146 0.43466,-0.10883 0.95548,-0.0894 1.2655,-0.19476 0.31018,-0.10532 0.48679,-0.32568 0.48679,-0.8764 0,-0.58456 -0.67374,-1.363 -1.4604,-1.363 -0.68875,0 -1.6053,0.0249 -2.239,-0.29202 -0.88098,-0.44083 -0.88727,-1.1956 -1.947,-1.4605 -0.49765,-0.12463 -1.0891,-0.42639 -1.7522,-0.48685 z m 11.098,3.4077 c -0.30664,-0.0767 -0.46964,0.3678 -0.48654,0.87656 -0.0172,0.50851 0.14356,1.0615 0.19455,1.2656 0.11292,0.45194 1.6972,0.68143 2.2392,0.68143 0.5416,0 0.97528,0.0158 1.1682,-0.0973 0.19287,-0.11322 0.13565,-0.31268 -0.0975,-0.7789 -0.32858,-0.65753 -0.52103,-1.4289 -1.1681,-1.7526 -0.53427,-0.267 -1.2674,-0.19452 -1.8498,-0.19476 z m 8.7617,0.6815 c -0.15955,0.11816 -0.24957,0.547 -0.1947,0.97376 0.055,0.42682 0.27713,0.79941 0.97357,0.97372 0.68616,0.17166 1.6984,0.11066 2.1417,0 0.35996,-0.0901 0.22028,-0.38361 -0.0974,-0.77911 -0.31757,-0.39523 -0.73877,-0.80756 -1.0708,-0.97336 -0.39865,-0.19955 -1.1595,-0.19501 -1.655,-0.19501 -0.0403,-0.0201 -0.0517,-0.0335 -0.0974,0 z m -31.834,0.9738 c -0.12958,0.008 -0.35809,0.0974 -0.48679,0.0974 -0.12958,-0.10623 -1.5028,-0.0274 -2.1416,0.29233 -0.44641,0.22302 -0.73788,0.43976 -0.87622,0.6813 -0.13812,0.24152 -0.14545,0.58514 0.0973,1.0711 0.25354,0.50708 0.28571,0.84189 0.38956,1.071 0.10348,0.22894 0.30112,0.34311 0.87622,0.48688 0.93396,0.23343 1.7747,0.52432 2.6283,0.0974 0.65988,-0.33011 0.97348,-1.2835 0.97363,-2.0447 0,-0.93951 -0.26282,-1.4532 -1.0709,-1.6553 -0.12488,-0.0312 -0.25986,-0.1051 -0.38944,-0.0974 z m 35.923,3.5051 c -0.4978,0.10577 -0.41141,0.85419 0.0975,1.3632 0.60718,0.6073 1.2431,0.4007 1.6548,0.19476 0.44836,-0.22434 0.27771,-0.59613 -0.0973,-0.87631 -0.37506,-0.28018 -0.94492,-0.48111 -0.97357,-0.48679 -0.29355,-0.14691 -0.5155,-0.23004 -0.68149,-0.19486 z m 3.0179,4.2841 c -0.26135,0.20252 -1.0707,0.86642 -1.0707,1.2658 0,0.38025 0.39587,0.37729 0.87607,0.29208 0.48019,-0.0855 0.9928,-0.25305 1.0709,-0.29208 0.45084,-0.22562 -0.36288,-0.93665 -0.77878,-1.2658 -0.0147,0.007 -0.0729,-0.012 -0.0975,0 z m 0.5842,3.5052 c 0.0163,0.027 0.0786,0.16498 0.0973,0.19461 0.0726,-0.0607 0.10873,-0.18961 0.0975,-0.19461 -0.009,-0.004 -0.10931,-0.0428 -0.19476,0 z m 0.0973,0.1946 c -0.34387,0.28839 -1.4235,1.0214 -1.5576,1.5578 -0.1141,0.4566 1.901,-0.0742 1.947,-0.0972 0.45209,-0.22617 -0.091,-0.98779 -0.38944,-1.4606 z m 4.0889,1.0709 c -0.0445,0.46155 -0.52957,1.7206 -0.0974,2.0448 0.63739,0.47821 0.9281,0.34219 1.0709,0.0973 0.14273,-0.24484 0.12762,-0.62097 0,-0.87616 -0.24377,-0.48776 -0.52612,-0.80905 -0.97342,-1.2659 z"
             id="path1481" />
        </g>
        <path
           style="fill:url(#c);stroke-width:20;stroke-linecap:round;stroke-linejoin:round;stroke-dashoffset:50"
           inkscape:connector-curvature="0"
           d="m 325.74,155.71 c 0,0 -39.081,-3.7873 -65.969,15.659 -26.888,19.447 -41.584,62.128 -72.815,75.064 C 124.494,272.305 75.896,259.2 75.896,259.2 47.333,190.242 80.1167,111.1 149.074,82.53 c 68.958,-28.563 148.1,4.2207 176.67,73.178 z"
           id="path1485" />
      </g>
      <g
         style="fill:#000000;stroke:none"
         transform="matrix(0.00795245,0,0,-0.00795245,48.513783,155.169)"
         id="g1385">
        <path
           inkscape:connector-curvature="0"
           d="M 2335,5419 C 1975,5396 1538,5324 885,5180 786,5158 554,5111 370,5074 186,5037 30,5006 24,5004 9,5001 -5,4665 3,4535 16,4335 48,4262 192,4097 437,3816 477,3749 534,3515 662,2994 865,2403 1079,1931 c 133,-295 311,-475 636,-642 554,-286 1278,-380 2055,-269 475,69 861,268 1205,621 245,252 440,538 650,954 107,211 139,297 220,600 66,245 100,346 161,470 85,177 139,216 304,223 52,2 165,-1 250,-6 180,-12 227,-27 293,-96 79,-81 109,-153 232,-571 205,-690 481,-1197 846,-1550 174,-168 310,-265 518,-369 406,-204 854,-306 1346,-306 910,0 1659,377 2041,1027 136,230 208,434 354,1003 171,666 214,794 320,950 45,66 126,143 197,188 88,56 88,55 86,422 0,85 0,189 1,230 2,138 -44,177 -257,216 -171,32 -290,60 -572,138 -327,91 -379,103 -654,146 -683,108 -863,125 -1230,117 -488,-11 -826,-59 -1826,-257 -675,-134 -955,-181 -1278,-215 -248,-26 -554,-36 -773,-25 -392,19 -583,48 -1179,180 -550,122 -661,143 -1031,195 -786,109 -1239,140 -1659,114 z"
           id="path1383" />
      </g>
      <g
         style="fill:#000000;stroke:none"
         transform="matrix(0.01253068,0,0,-0.01253068,19.193006,115.88975)"
         id="g1399">
        <path
           inkscape:connector-curvature="0"
           d="m 4691,5458.7944 c -317,-44 -600,-287 -799,-686 -120,-241 0,0 -247,-864 L 3341,3175 C 3285,2941 3295,2963 3236,2955 2356,2842 1585,2683 1048,2501 382,2276 27,2025 3,1762 -37,1321 887,883 2465,596 4603,207 7602,176 9875,521 c 767,116 1403,262 1895,437 926,327 1239,705 888,1069 -359,370 -1423,701 -2906,903 -123,16 -227,30 -231,30 -9,0 -18,29 -62,215 l -334,898.7944 c -321,882 -168,648 -321,882 -69,107 -85,126 -182,227 -95,97 -175,155 -284,205 -117,55 -203,74 -323,74 -136,0 -286,-32 -910,-193 -250,-64 -355,-86 -508,-105 -262,-32 -455,-10 -902,105 -699,180 -857,210 -1004,190 z"
           id="path1397"
           sodipodi:nodetypes="ccccccccccccscccccscccc" />
      </g>
    </g>
  </g>
</svg>
